<svg xmlns="http://www.w3.org/2000/svg" width="32" height="32" viewBox="0 0 32 32">
<rect width="32" height="32" rx="6" fill="#FAF8F5"></rect>
<circle cx="5.00" cy="5.00" r="1.32" fill="#8E1F1F"></circle><circle cx="9.40" cy="5.00" r="1.32" fill="#8E1F1F"></circle><circle cx="13.80" cy="5.00" r="1.32" fill="#8E1F1F"></circle><circle cx="18.20" cy="5.00" r="1.32" fill="#8E1F1F"></circle><circle cx="22.60" cy="5.00" r="1.32" fill="#8E1F1F"></circle><circle cx="27.00" cy="5.00" r="1.32" fill="#8E1F1F"></circle><circle cx="5.00" cy="9.40" r="1.32" fill="#8E1F1F"></circle><circle cx="9.40" cy="9.40" r="1.32" fill="#8E1F1F"></circle><circle cx="13.80" cy="9.40" r="1.32" fill="#8E1F1F"></circle><circle cx="18.20" cy="9.40" r="1.32" fill="#8E1F1F"></circle><circle cx="22.60" cy="9.40" r="1.32" fill="#8E1F1F"></circle><circle cx="27.00" cy="9.40" r="1.32" fill="#8E1F1F"></circle><circle cx="5.00" cy="13.80" r="1.32" fill="#8E1F1F"></circle><circle cx="9.40" cy="13.80" r="1.32" fill="#8E1F1F"></circle><circle cx="13.80" cy="13.80" r="2.51" fill="#B82424" opacity="0.35"></circle><circle cx="13.80" cy="13.80" r="1.52" fill="#B82424"></circle><circle cx="18.20" cy="13.80" r="2.51" fill="#B82424" opacity="0.35"></circle><circle cx="18.20" cy="13.80" r="1.52" fill="#B82424"></circle><circle cx="22.60" cy="13.80" r="1.32" fill="#8E1F1F"></circle><circle cx="27.00" cy="13.80" r="1.32" fill="#8E1F1F"></circle><circle cx="5.00" cy="18.20" r="1.32" fill="#8E1F1F"></circle><circle cx="9.40" cy="18.20" r="1.32" fill="#8E1F1F"></circle><circle cx="13.80" cy="18.20" r="2.51" fill="#B82424" opacity="0.35"></circle><circle cx="13.80" cy="18.20" r="1.52" fill="#B82424"></circle><circle cx="18.20" cy="18.20" r="2.51" fill="#B82424" opacity="0.35"></circle><circle cx="18.20" cy="18.20" r="1.52" fill="#B82424"></circle><circle cx="22.60" cy="18.20" r="1.32" fill="#8E1F1F"></circle><circle cx="27.00" cy="18.20" r="1.32" fill="#8E1F1F"></circle><circle cx="5.00" cy="22.60" r="1.32" fill="#8E1F1F"></circle><circle cx="9.40" cy="22.60" r="1.32" fill="#8E1F1F"></circle><circle cx="13.80" cy="22.60" r="1.32" fill="#8E1F1F"></circle><circle cx="18.20" cy="22.60" r="1.32" fill="#8E1F1F"></circle><circle cx="22.60" cy="22.60" r="1.32" fill="#8E1F1F"></circle><circle cx="27.00" cy="22.60" r="1.32" fill="#8E1F1F"></circle><circle cx="5.00" cy="27.00" r="1.32" fill="#8E1F1F"></circle><circle cx="9.40" cy="27.00" r="1.32" fill="#8E1F1F"></circle><circle cx="13.80" cy="27.00" r="1.32" fill="#8E1F1F"></circle><circle cx="18.20" cy="27.00" r="1.32" fill="#8E1F1F"></circle><circle cx="22.60" cy="27.00" r="1.32" fill="#8E1F1F"></circle><circle cx="27.00" cy="27.00" r="1.32" fill="#8E1F1F"></circle>
</svg>