<svg xmlns="http://www.w3.org/2000/svg" width="512" height="512" viewBox="0 0 512 512">
<defs><radialGradient id="vig" cx="50%" cy="50%" r="62%">
<stop offset="55%" stop-color="#2a0707" stop-opacity="0"></stop>
<stop offset="100%" stop-color="#2a0707" stop-opacity="0.45"></stop>
</radialGradient></defs>
<circle cx="19.7" cy="19.7" r="18.1" fill="rgb(142,31,31)" opacity="0.33"></circle><circle cx="59.1" cy="19.7" r="18.1" fill="rgb(136,29,29)" opacity="0.52"></circle><circle cx="98.5" cy="19.7" r="18.1" fill="rgb(130,28,28)" opacity="0.69"></circle><circle cx="137.8" cy="19.7" r="18.1" fill="rgb(125,27,27)" opacity="0.83"></circle><circle cx="177.2" cy="19.7" r="18.1" fill="rgb(122,26,26)" opacity="0.94"></circle><circle cx="216.6" cy="19.7" r="18.1" fill="rgb(119,25,25)" opacity="1.00"></circle><circle cx="256.0" cy="19.7" r="18.1" fill="rgb(119,25,25)" opacity="1.00"></circle><circle cx="295.4" cy="19.7" r="18.1" fill="rgb(119,25,25)" opacity="1.00"></circle><circle cx="334.8" cy="19.7" r="18.1" fill="rgb(122,26,26)" opacity="0.94"></circle><circle cx="374.2" cy="19.7" r="18.1" fill="rgb(125,27,27)" opacity="0.83"></circle><circle cx="413.5" cy="19.7" r="18.1" fill="rgb(130,28,28)" opacity="0.69"></circle><circle cx="452.9" cy="19.7" r="18.1" fill="rgb(136,29,29)" opacity="0.52"></circle><circle cx="492.3" cy="19.7" r="18.1" fill="rgb(142,31,31)" opacity="0.33"></circle><circle cx="19.7" cy="59.1" r="18.1" fill="rgb(136,29,29)" opacity="0.52"></circle><circle cx="59.1" cy="59.1" r="18.1" fill="rgb(129,28,28)" opacity="0.73"></circle><circle cx="98.5" cy="59.1" r="18.1" fill="rgb(122,26,26)" opacity="0.92"></circle><circle cx="137.8" cy="59.1" r="18.1" fill="rgb(117,25,25)" opacity="1.00"></circle><circle cx="177.2" cy="59.1" r="18.1" fill="rgb(113,24,24)" opacity="1.00"></circle><circle cx="216.6" cy="59.1" r="18.1" fill="rgb(110,23,23)" opacity="1.00"></circle><circle cx="256.0" cy="59.1" r="18.1" fill="rgb(109,23,23)" opacity="1.00"></circle><circle cx="295.4" cy="59.1" r="18.1" fill="rgb(110,23,23)" opacity="1.00"></circle><circle cx="334.8" cy="59.1" r="18.1" fill="rgb(113,24,24)" opacity="1.00"></circle><circle cx="374.2" cy="59.1" r="18.1" fill="rgb(117,25,25)" opacity="1.00"></circle><circle cx="413.5" cy="59.1" r="18.1" fill="rgb(122,26,26)" opacity="0.92"></circle><circle cx="452.9" cy="59.1" r="18.1" fill="rgb(129,28,28)" opacity="0.73"></circle><circle cx="492.3" cy="59.1" r="18.1" fill="rgb(136,29,29)" opacity="0.52"></circle><circle cx="19.7" cy="98.5" r="18.1" fill="rgb(130,28,28)" opacity="0.69"></circle><circle cx="59.1" cy="98.5" r="18.1" fill="rgb(122,26,26)" opacity="0.92"></circle><circle cx="98.5" cy="98.5" r="18.1" fill="rgb(115,24,24)" opacity="1.00"></circle><circle cx="137.8" cy="98.5" r="18.1" fill="rgb(109,23,23)" opacity="1.00"></circle><circle cx="177.2" cy="98.5" r="18.1" fill="rgb(104,22,22)" opacity="1.00"></circle><circle cx="216.6" cy="98.5" r="18.1" fill="rgb(101,21,21)" opacity="1.00"></circle><circle cx="256.0" cy="98.5" r="18.1" fill="rgb(100,20,20)" opacity="1.00"></circle><circle cx="295.4" cy="98.5" r="18.1" fill="rgb(101,21,21)" opacity="1.00"></circle><circle cx="334.8" cy="98.5" r="18.1" fill="rgb(104,22,22)" opacity="1.00"></circle><circle cx="374.2" cy="98.5" r="18.1" fill="rgb(109,23,23)" opacity="1.00"></circle><circle cx="413.5" cy="98.5" r="18.1" fill="rgb(115,24,24)" opacity="1.00"></circle><circle cx="452.9" cy="98.5" r="18.1" fill="rgb(122,26,26)" opacity="0.92"></circle><circle cx="492.3" cy="98.5" r="18.1" fill="rgb(130,28,28)" opacity="0.69"></circle><circle cx="19.7" cy="137.8" r="18.1" fill="rgb(125,27,27)" opacity="0.83"></circle><circle cx="59.1" cy="137.8" r="18.1" fill="rgb(117,25,25)" opacity="1.00"></circle><circle cx="98.5" cy="137.8" r="18.1" fill="rgb(109,23,23)" opacity="1.00"></circle><circle cx="137.8" cy="137.8" r="18.1" fill="rgb(102,21,21)" opacity="1.00"></circle><circle cx="177.2" cy="137.8" r="18.1" fill="rgb(96,19,19)" opacity="1.00"></circle><circle cx="216.6" cy="137.8" r="18.1" fill="rgb(92,18,18)" opacity="1.00"></circle><circle cx="256.0" cy="137.8" r="18.1" fill="rgb(90,18,18)" opacity="1.00"></circle><circle cx="295.4" cy="137.8" r="18.1" fill="rgb(92,18,18)" opacity="1.00"></circle><circle cx="334.8" cy="137.8" r="18.1" fill="rgb(96,19,19)" opacity="1.00"></circle><circle cx="374.2" cy="137.8" r="18.1" fill="rgb(102,21,21)" opacity="1.00"></circle><circle cx="413.5" cy="137.8" r="18.1" fill="rgb(109,23,23)" opacity="1.00"></circle><circle cx="452.9" cy="137.8" r="18.1" fill="rgb(117,25,25)" opacity="1.00"></circle><circle cx="492.3" cy="137.8" r="18.1" fill="rgb(125,27,27)" opacity="0.83"></circle><circle cx="19.7" cy="177.2" r="18.1" fill="rgb(122,26,26)" opacity="0.94"></circle><circle cx="59.1" cy="177.2" r="18.1" fill="rgb(113,24,24)" opacity="1.00"></circle><circle cx="98.5" cy="177.2" r="18.1" fill="rgb(104,22,22)" opacity="1.00"></circle><circle cx="137.8" cy="177.2" r="18.1" fill="rgb(96,19,19)" opacity="1.00"></circle><circle cx="177.2" cy="177.2" r="18.1" fill="rgb(89,18,18)" opacity="1.00"></circle><circle cx="216.6" cy="177.2" r="18.1" fill="rgb(83,16,16)" opacity="1.00"></circle><circle cx="256.0" cy="177.2" r="18.1" fill="rgb(81,16,16)" opacity="1.00"></circle><circle cx="295.4" cy="177.2" r="18.1" fill="rgb(83,16,16)" opacity="1.00"></circle><circle cx="334.8" cy="177.2" r="18.1" fill="rgb(89,18,18)" opacity="1.00"></circle><circle cx="374.2" cy="177.2" r="18.1" fill="rgb(96,19,19)" opacity="1.00"></circle><circle cx="413.5" cy="177.2" r="18.1" fill="rgb(104,22,22)" opacity="1.00"></circle><circle cx="452.9" cy="177.2" r="18.1" fill="rgb(113,24,24)" opacity="1.00"></circle><circle cx="492.3" cy="177.2" r="18.1" fill="rgb(122,26,26)" opacity="0.94"></circle><circle cx="19.7" cy="216.6" r="18.1" fill="rgb(119,25,25)" opacity="1.00"></circle><circle cx="59.1" cy="216.6" r="18.1" fill="rgb(110,23,23)" opacity="1.00"></circle><circle cx="98.5" cy="216.6" r="18.1" fill="rgb(101,21,21)" opacity="1.00"></circle><circle cx="137.8" cy="216.6" r="18.1" fill="rgb(92,18,18)" opacity="1.00"></circle><circle cx="177.2" cy="216.6" r="18.1" fill="rgb(83,16,16)" opacity="1.00"></circle><circle cx="216.6" cy="216.6" r="18.1" fill="rgb(75,14,14)" opacity="1.00"></circle><circle cx="256.0" cy="216.6" r="18.1" fill="rgb(71,13,13)" opacity="1.00"></circle><circle cx="295.4" cy="216.6" r="18.1" fill="rgb(75,14,14)" opacity="1.00"></circle><circle cx="334.8" cy="216.6" r="18.1" fill="rgb(83,16,16)" opacity="1.00"></circle><circle cx="374.2" cy="216.6" r="18.1" fill="rgb(92,18,18)" opacity="1.00"></circle><circle cx="413.5" cy="216.6" r="18.1" fill="rgb(101,21,21)" opacity="1.00"></circle><circle cx="452.9" cy="216.6" r="18.1" fill="rgb(110,23,23)" opacity="1.00"></circle><circle cx="492.3" cy="216.6" r="18.1" fill="rgb(119,25,25)" opacity="1.00"></circle><circle cx="19.7" cy="256.0" r="18.1" fill="rgb(119,25,25)" opacity="1.00"></circle><circle cx="59.1" cy="256.0" r="18.1" fill="rgb(109,23,23)" opacity="1.00"></circle><circle cx="98.5" cy="256.0" r="18.1" fill="rgb(100,20,20)" opacity="1.00"></circle><circle cx="137.8" cy="256.0" r="18.1" fill="rgb(90,18,18)" opacity="1.00"></circle><circle cx="177.2" cy="256.0" r="18.1" fill="rgb(81,16,16)" opacity="1.00"></circle><circle cx="216.6" cy="256.0" r="18.1" fill="rgb(71,13,13)" opacity="1.00"></circle><circle cx="256.0" cy="256.0" r="18.1" fill="rgb(62,11,11)" opacity="1.00"></circle><circle cx="295.4" cy="256.0" r="18.1" fill="rgb(71,13,13)" opacity="1.00"></circle><circle cx="334.8" cy="256.0" r="18.1" fill="rgb(81,16,16)" opacity="1.00"></circle><circle cx="374.2" cy="256.0" r="18.1" fill="rgb(90,18,18)" opacity="1.00"></circle><circle cx="413.5" cy="256.0" r="18.1" fill="rgb(100,20,20)" opacity="1.00"></circle><circle cx="452.9" cy="256.0" r="18.1" fill="rgb(109,23,23)" opacity="1.00"></circle><circle cx="492.3" cy="256.0" r="18.1" fill="rgb(119,25,25)" opacity="1.00"></circle><circle cx="19.7" cy="295.4" r="18.1" fill="rgb(119,25,25)" opacity="1.00"></circle><circle cx="59.1" cy="295.4" r="18.1" fill="rgb(110,23,23)" opacity="1.00"></circle><circle cx="98.5" cy="295.4" r="18.1" fill="rgb(101,21,21)" opacity="1.00"></circle><circle cx="137.8" cy="295.4" r="18.1" fill="rgb(92,18,18)" opacity="1.00"></circle><circle cx="177.2" cy="295.4" r="18.1" fill="rgb(83,16,16)" opacity="1.00"></circle><circle cx="216.6" cy="295.4" r="18.1" fill="rgb(75,14,14)" opacity="1.00"></circle><circle cx="256.0" cy="295.4" r="18.1" fill="rgb(71,13,13)" opacity="1.00"></circle><circle cx="295.4" cy="295.4" r="18.1" fill="rgb(75,14,14)" opacity="1.00"></circle><circle cx="334.8" cy="295.4" r="18.1" fill="rgb(83,16,16)" opacity="1.00"></circle><circle cx="374.2" cy="295.4" r="18.1" fill="rgb(92,18,18)" opacity="1.00"></circle><circle cx="413.5" cy="295.4" r="18.1" fill="rgb(101,21,21)" opacity="1.00"></circle><circle cx="452.9" cy="295.4" r="18.1" fill="rgb(110,23,23)" opacity="1.00"></circle><circle cx="492.3" cy="295.4" r="18.1" fill="rgb(119,25,25)" opacity="1.00"></circle><circle cx="19.7" cy="334.8" r="18.1" fill="rgb(122,26,26)" opacity="0.94"></circle><circle cx="59.1" cy="334.8" r="18.1" fill="rgb(113,24,24)" opacity="1.00"></circle><circle cx="98.5" cy="334.8" r="18.1" fill="rgb(104,22,22)" opacity="1.00"></circle><circle cx="137.8" cy="334.8" r="18.1" fill="rgb(96,19,19)" opacity="1.00"></circle><circle cx="177.2" cy="334.8" r="18.1" fill="rgb(89,18,18)" opacity="1.00"></circle><circle cx="216.6" cy="334.8" r="18.1" fill="rgb(83,16,16)" opacity="1.00"></circle><circle cx="256.0" cy="334.8" r="18.1" fill="rgb(81,16,16)" opacity="1.00"></circle><circle cx="295.4" cy="334.8" r="18.1" fill="rgb(83,16,16)" opacity="1.00"></circle><circle cx="334.8" cy="334.8" r="18.1" fill="rgb(89,18,18)" opacity="1.00"></circle><circle cx="374.2" cy="334.8" r="18.1" fill="rgb(96,19,19)" opacity="1.00"></circle><circle cx="413.5" cy="334.8" r="18.1" fill="rgb(104,22,22)" opacity="1.00"></circle><circle cx="452.9" cy="334.8" r="18.1" fill="rgb(113,24,24)" opacity="1.00"></circle><circle cx="492.3" cy="334.8" r="18.1" fill="rgb(122,26,26)" opacity="0.94"></circle><circle cx="19.7" cy="374.2" r="18.1" fill="rgb(125,27,27)" opacity="0.83"></circle><circle cx="59.1" cy="374.2" r="18.1" fill="rgb(117,25,25)" opacity="1.00"></circle><circle cx="98.5" cy="374.2" r="18.1" fill="rgb(109,23,23)" opacity="1.00"></circle><circle cx="137.8" cy="374.2" r="18.1" fill="rgb(102,21,21)" opacity="1.00"></circle><circle cx="177.2" cy="374.2" r="18.1" fill="rgb(96,19,19)" opacity="1.00"></circle><circle cx="216.6" cy="374.2" r="18.1" fill="rgb(92,18,18)" opacity="1.00"></circle><circle cx="256.0" cy="374.2" r="18.1" fill="rgb(90,18,18)" opacity="1.00"></circle><circle cx="295.4" cy="374.2" r="18.1" fill="rgb(92,18,18)" opacity="1.00"></circle><circle cx="334.8" cy="374.2" r="18.1" fill="rgb(96,19,19)" opacity="1.00"></circle><circle cx="374.2" cy="374.2" r="18.1" fill="rgb(102,21,21)" opacity="1.00"></circle><circle cx="413.5" cy="374.2" r="18.1" fill="rgb(109,23,23)" opacity="1.00"></circle><circle cx="452.9" cy="374.2" r="18.1" fill="rgb(117,25,25)" opacity="1.00"></circle><circle cx="492.3" cy="374.2" r="18.1" fill="rgb(125,27,27)" opacity="0.83"></circle><circle cx="19.7" cy="413.5" r="18.1" fill="rgb(130,28,28)" opacity="0.69"></circle><circle cx="59.1" cy="413.5" r="18.1" fill="rgb(122,26,26)" opacity="0.92"></circle><circle cx="98.5" cy="413.5" r="18.1" fill="rgb(115,24,24)" opacity="1.00"></circle><circle cx="137.8" cy="413.5" r="18.1" fill="rgb(109,23,23)" opacity="1.00"></circle><circle cx="177.2" cy="413.5" r="18.1" fill="rgb(104,22,22)" opacity="1.00"></circle><circle cx="216.6" cy="413.5" r="18.1" fill="rgb(101,21,21)" opacity="1.00"></circle><circle cx="256.0" cy="413.5" r="18.1" fill="rgb(100,20,20)" opacity="1.00"></circle><circle cx="295.4" cy="413.5" r="18.1" fill="rgb(101,21,21)" opacity="1.00"></circle><circle cx="334.8" cy="413.5" r="18.1" fill="rgb(104,22,22)" opacity="1.00"></circle><circle cx="374.2" cy="413.5" r="18.1" fill="rgb(109,23,23)" opacity="1.00"></circle><circle cx="413.5" cy="413.5" r="18.1" fill="rgb(115,24,24)" opacity="1.00"></circle><circle cx="452.9" cy="413.5" r="18.1" fill="rgb(122,26,26)" opacity="0.92"></circle><circle cx="492.3" cy="413.5" r="18.1" fill="rgb(130,28,28)" opacity="0.69"></circle><circle cx="19.7" cy="452.9" r="18.1" fill="rgb(136,29,29)" opacity="0.52"></circle><circle cx="59.1" cy="452.9" r="18.1" fill="rgb(129,28,28)" opacity="0.73"></circle><circle cx="98.5" cy="452.9" r="18.1" fill="rgb(122,26,26)" opacity="0.92"></circle><circle cx="137.8" cy="452.9" r="18.1" fill="rgb(117,25,25)" opacity="1.00"></circle><circle cx="177.2" cy="452.9" r="18.1" fill="rgb(113,24,24)" opacity="1.00"></circle><circle cx="216.6" cy="452.9" r="18.1" fill="rgb(110,23,23)" opacity="1.00"></circle><circle cx="256.0" cy="452.9" r="18.1" fill="rgb(109,23,23)" opacity="1.00"></circle><circle cx="295.4" cy="452.9" r="18.1" fill="rgb(110,23,23)" opacity="1.00"></circle><circle cx="334.8" cy="452.9" r="18.1" fill="rgb(113,24,24)" opacity="1.00"></circle><circle cx="374.2" cy="452.9" r="18.1" fill="rgb(117,25,25)" opacity="1.00"></circle><circle cx="413.5" cy="452.9" r="18.1" fill="rgb(122,26,26)" opacity="0.92"></circle><circle cx="452.9" cy="452.9" r="18.1" fill="rgb(129,28,28)" opacity="0.73"></circle><circle cx="492.3" cy="452.9" r="18.1" fill="rgb(136,29,29)" opacity="0.52"></circle><circle cx="19.7" cy="492.3" r="18.1" fill="rgb(142,31,31)" opacity="0.33"></circle><circle cx="59.1" cy="492.3" r="18.1" fill="rgb(136,29,29)" opacity="0.52"></circle><circle cx="98.5" cy="492.3" r="18.1" fill="rgb(130,28,28)" opacity="0.69"></circle><circle cx="137.8" cy="492.3" r="18.1" fill="rgb(125,27,27)" opacity="0.83"></circle><circle cx="177.2" cy="492.3" r="18.1" fill="rgb(122,26,26)" opacity="0.94"></circle><circle cx="216.6" cy="492.3" r="18.1" fill="rgb(119,25,25)" opacity="1.00"></circle><circle cx="256.0" cy="492.3" r="18.1" fill="rgb(119,25,25)" opacity="1.00"></circle><circle cx="295.4" cy="492.3" r="18.1" fill="rgb(119,25,25)" opacity="1.00"></circle><circle cx="334.8" cy="492.3" r="18.1" fill="rgb(122,26,26)" opacity="0.94"></circle><circle cx="374.2" cy="492.3" r="18.1" fill="rgb(125,27,27)" opacity="0.83"></circle><circle cx="413.5" cy="492.3" r="18.1" fill="rgb(130,28,28)" opacity="0.69"></circle><circle cx="452.9" cy="492.3" r="18.1" fill="rgb(136,29,29)" opacity="0.52"></circle><circle cx="492.3" cy="492.3" r="18.1" fill="rgb(142,31,31)" opacity="0.33"></circle>
<rect width="512" height="512" fill="url(#vig)"></rect>
</svg>