<?xml version="1.0"?> <svg xmlns="http://www.w3.org/2000/svg" width="1134" height="579" viewBox="0 0 1134 579" fill="none"><g clip-path="url(#clip0_88_1897)"><path d="M826.263 440.133L776.659 383.902L834.314 299.182H1075.88L1134 376.3L1091.7 428.567L1086.99 424.745L1126.31 376.158L1072.84 305.248H837.531L784.326 383.417L830.815 436.129L826.263 440.133Z" fill="#009FFF"></path><path d="M955.208 579L856.871 474.587L861.281 470.442L955.148 570.104L1045.01 472.342L1049.48 476.447L955.208 579Z" fill="#009FFF"></path><path d="M978.493 455.054C977.36 455.054 975.924 455.055 975.074 454.751C974.791 450.687 974.507 433.521 974.791 418.397C976.51 417.81 977.643 417.527 979.059 417.527C985.33 417.527 988.729 425.089 988.729 434.41C988.729 446.037 984.461 455.054 978.473 455.054M985.047 412.877C981.062 412.877 977.926 413.746 974.791 415.505C974.791 406.204 974.791 397.752 975.074 394.841L956.017 398.339V400.078L958 400.361C960.569 400.947 961.419 402.403 961.985 405.881C962.552 412.856 962.268 450.101 961.985 456.207C967.103 457.38 972.525 458.249 977.926 458.249C993.018 458.249 1002.12 448.645 1002.12 433.521C1002.12 421.591 994.717 412.856 985.047 412.856" fill="#009FFF"></path><path d="M884.302 396.014H834.213V398.622L837.066 398.905C840.768 399.491 842.184 401.817 842.75 407.337C843.6 417.81 843.317 436.715 842.75 445.733C842.184 451.253 840.768 453.882 837.066 454.165L834.213 454.751V457.077H866.359V454.751L862.94 454.165C859.238 453.862 857.822 451.253 857.255 445.733C856.972 441.952 856.689 435.846 856.689 428.284L863.526 428.567C867.795 428.567 869.798 432.065 870.647 436.999H873.216V416.354H870.647C869.798 421.288 867.795 424.786 863.526 424.786L856.689 425.089C856.689 415.202 856.972 405.881 857.255 400.361H867.208C874.896 400.361 878.881 405.315 881.713 414.029L884.565 413.16L884.282 395.993L884.302 396.014Z" fill="#009FFF"></path><path d="M899.677 415.222C893.406 415.222 891.707 423.937 891.707 435.28C891.707 446.623 894.559 455.358 900.244 455.358C906.778 455.358 908.497 446.643 908.497 435.28C908.497 423.917 905.645 415.222 899.677 415.222ZM900.527 412.311C914.748 412.311 921.869 422.198 921.869 435.3C921.869 448.402 913.899 458.29 899.677 458.29C885.456 458.29 878.335 448.402 878.335 435.3C878.335 422.198 886.305 412.311 900.527 412.311Z" fill="#009FFF"></path><path d="M1018.91 430.043L1032.28 429.76C1032.28 423.937 1031.43 415.222 1026.6 415.222C1021.76 415.222 1019.2 423.371 1018.91 430.063M1005.8 435.563C1005.8 423.633 1013.21 412.29 1027.71 412.29C1039.67 412.29 1045.35 421.308 1045.35 433.238H1018.89C1018.61 443.994 1023.73 451.86 1033.98 451.86C1038.54 451.86 1040.82 450.687 1043.65 448.665L1044.79 450.121C1041.93 454.185 1035.68 458.269 1027.71 458.269C1014.91 458.269 1005.8 448.968 1005.8 435.583" fill="#009FFF"></path><path d="M1079.22 414.636C1075.8 413.18 1071.25 412.311 1066.13 412.311C1055.59 412.311 1049.05 418.7 1049.05 426.262C1049.05 433.824 1053.89 437.019 1060.73 439.364C1067.85 441.973 1069.83 444.015 1069.83 447.513C1069.83 451.011 1067.26 454.205 1062.71 454.205C1057.31 454.205 1053.32 451.011 1050.19 442.276L1048.18 442.862L1048.47 455.661C1051.89 457.117 1058.14 458.269 1063.54 458.269C1074.65 458.269 1081.75 452.446 1081.75 443.428C1081.75 437.322 1078.61 433.824 1071.21 430.912C1063.24 427.718 1060.4 425.676 1060.4 421.895C1060.4 418.114 1062.97 415.505 1066.37 415.505C1071.49 415.505 1074.91 418.7 1077.48 426.565L1079.48 425.979L1079.2 414.636H1079.22Z" fill="#009FFF"></path><path d="M958.87 413.463C954.035 410.551 945.498 412.007 940.946 422.481L941.229 412.311L922.173 416.092V417.83L924.175 418.114C926.745 418.397 927.878 419.852 928.161 423.633C928.727 430.609 928.444 442.842 928.161 448.948C927.878 452.426 926.745 454.185 924.175 454.468L922.173 454.772V457.097H948.633V454.772L945.215 454.468C942.362 454.185 941.512 452.426 941.229 448.948C940.663 443.408 940.663 432.368 940.946 425.393C942.362 423.35 948.633 421.612 954.318 425.393L958.87 413.463Z" fill="#009FFF"></path><path d="M838.381 358.041C839.392 357.718 840.667 357.576 842.022 357.576C844.47 357.576 846.27 358.203 847.565 359.356C849.386 360.933 850.761 363.986 850.761 368.94C850.761 374.338 849.426 377.29 847.909 378.948C846.371 380.667 844.085 381.476 841.375 381.476C840.282 381.476 839.129 381.395 838.36 381.233V358.041H838.381ZM841.091 379.171C841.476 379.252 841.86 379.252 842.103 379.252C845.077 379.252 847.97 377.108 847.97 369.041C847.97 363.076 846.149 359.821 842.346 359.821C841.921 359.821 841.435 359.861 841.091 359.962V379.191V379.171Z" fill="#009FFF"></path><path d="M854.888 361.742C854.018 361.742 853.351 361.034 853.351 359.982C853.351 358.931 854.059 358.223 854.929 358.223C855.92 358.223 856.547 358.931 856.547 359.982C856.547 361.034 855.92 361.742 854.929 361.742H854.888ZM853.634 381.334V364.35H856.345V381.334H853.634Z" fill="#009FFF"></path><path d="M868.705 377.492C868.705 378.786 868.705 380.263 868.887 381.354H866.46L866.278 379.575H866.176C865.448 380.869 864.255 381.637 862.798 381.637C860.512 381.637 858.752 379.737 858.752 376.805C858.752 372.518 862.151 370.658 865.974 370.638V370.112C865.974 367.828 865.408 366.25 863.263 366.25C862.211 366.25 861.261 366.574 860.451 367.12L859.865 365.219C860.593 364.694 862.151 364.087 863.83 364.087C867.228 364.087 868.665 366.331 868.665 370.112V377.472L868.705 377.492ZM866.055 372.539C864.659 372.539 861.382 372.822 861.382 376.502C861.382 378.746 862.515 379.514 863.445 379.514C864.639 379.514 865.63 378.645 865.934 376.947C865.994 376.623 866.035 376.279 866.035 375.956V372.518L866.055 372.539Z" fill="#009FFF"></path><path d="M872.205 368.737C872.205 366.736 872.104 365.725 872.063 364.35H874.45L874.592 366.412H874.653C875.381 365.037 876.656 364.067 878.436 364.067C880.014 364.067 881.389 364.795 882.016 366.635H882.077C882.542 365.785 883.129 365.118 883.736 364.714C884.444 364.289 885.213 364.087 886.083 364.087C888.409 364.087 890.189 365.745 890.189 370.092V381.354H887.479V370.699C887.479 368.495 887.155 366.351 885.132 366.351C883.999 366.351 883.028 367.302 882.644 368.919C882.542 369.344 882.542 369.87 882.542 370.436V381.375H879.832V370.213C879.832 368.353 879.508 366.351 877.505 366.351C876.372 366.351 875.3 367.302 874.976 369.122C874.916 369.546 874.875 370.031 874.875 370.557V381.354H872.165V368.758L872.205 368.737Z" fill="#009FFF"></path><path d="M895.712 373.105C895.752 378.321 897.775 379.413 899.718 379.413C900.911 379.413 901.862 379.13 902.53 378.786L902.995 380.748C902.044 381.273 900.608 381.557 899.232 381.557C895.186 381.557 893.082 378.261 893.082 373.024C893.082 367.524 895.409 364.087 898.807 364.087C902.206 364.087 903.642 367.726 903.642 371.568C903.642 372.235 903.602 372.7 903.581 373.105H895.712ZM901.032 371.103C901.073 367.706 899.798 366.19 898.504 366.19C896.744 366.19 895.833 368.778 895.732 371.103H901.032Z" fill="#009FFF"></path><path d="M906.313 368.737C906.313 366.736 906.211 365.725 906.171 364.35H908.518L908.659 366.392H908.72C909.448 365.017 910.824 364.067 912.624 364.067C914.971 364.067 916.731 365.785 916.731 369.93V381.334H914.02V370.395C914.02 368.353 913.636 366.351 911.673 366.351C910.541 366.351 909.468 367.302 909.145 369.122C909.044 369.506 909.003 370.031 909.003 370.638V381.334H906.292V368.737H906.313Z" fill="#009FFF"></path><path d="M923.548 360.407V364.37H926.805V366.412H923.548V376.522C923.548 378.766 924.317 379.332 925.308 379.332C925.774 379.332 926.118 379.292 926.401 379.231L926.542 381.294C926.057 381.476 925.41 381.577 924.54 381.577C923.447 381.577 922.496 381.294 921.869 380.566C921.161 379.797 920.858 378.645 920.858 376.279V366.412H918.794V364.37H920.858V361.499L923.569 360.407H923.548Z" fill="#009FFF"></path><path d="M931.195 364.37L933.441 374.116C933.764 375.45 933.906 376.542 934.149 377.634H934.21C934.392 376.643 934.675 375.39 934.938 374.156L936.941 364.37H939.611L936.839 375.289C935.787 379.535 934.634 383.639 932.632 386.227C931.438 387.744 930.184 388.512 929.577 388.795L928.586 386.51C929.354 386.045 930.244 385.318 930.973 384.367C931.681 383.457 932.227 382.325 932.51 381.496C932.652 381.112 932.692 380.91 932.692 380.647C932.692 380.445 932.692 380.222 932.632 380.02L928.343 364.37H931.195Z" fill="#009FFF"></path><path d="M961.985 371.164C961.803 368.05 961.641 364.572 961.742 361.903H961.601C961.075 364.532 960.448 367.383 959.699 370.112L956.827 381.193H955.067L952.335 370.557C951.526 367.545 950.859 364.633 950.373 361.883H950.272C950.312 364.653 950.13 367.949 949.989 371.326L949.524 381.314H947.096L948.492 357.677H951.445L954.176 368.475C954.986 371.589 955.572 373.914 956.078 376.603H956.179C956.644 373.894 957.17 371.649 957.939 368.475L960.61 357.677H963.624L964.999 381.314H962.471L961.985 371.144V371.164Z" fill="#009FFF"></path><path d="M969.531 361.742C968.661 361.742 967.993 361.034 967.993 359.982C967.993 358.931 968.701 358.223 969.571 358.223C970.563 358.223 971.19 358.931 971.19 359.982C971.19 361.034 970.563 361.742 969.571 361.742H969.531ZM968.256 381.334V364.35H970.967V381.334H968.256Z" fill="#009FFF"></path><path d="M976.389 373.105C976.429 378.321 978.452 379.413 980.394 379.413C981.588 379.413 982.539 379.13 983.206 378.786L983.672 380.748C982.721 381.273 981.285 381.557 979.909 381.557C975.863 381.557 973.759 378.261 973.759 373.024C973.759 367.524 976.085 364.087 979.484 364.087C982.883 364.087 984.319 367.726 984.319 371.568C984.319 372.235 984.279 372.7 984.238 373.105H976.369H976.389ZM981.709 371.103C981.75 367.706 980.475 366.19 979.181 366.19C977.421 366.19 976.51 368.778 976.409 371.103H981.709Z" fill="#009FFF"></path><path d="M986.747 378.524C987.333 378.908 988.405 379.393 989.478 379.393C990.995 379.393 991.966 378.443 991.966 376.946C991.966 375.652 991.521 374.743 989.781 373.61C987.576 372.175 986.382 370.699 986.382 368.778C986.382 366.008 988.426 364.067 991.056 364.067C992.391 364.067 993.362 364.491 994.07 364.936L993.362 366.978C992.694 366.513 991.986 366.21 991.076 366.21C989.639 366.21 988.891 367.261 988.891 368.394C988.891 369.526 989.316 370.173 990.995 371.305C992.957 372.559 994.495 374.156 994.495 376.502C994.495 379.899 992.188 381.557 989.377 381.557C988.142 381.557 986.787 381.172 986.039 380.566L986.706 378.524H986.747Z" fill="#009FFF"></path><path d="M998.278 361.742C997.408 361.742 996.74 361.034 996.74 359.982C996.74 358.931 997.448 358.223 998.318 358.223C999.309 358.223 999.936 358.931 999.936 359.982C999.936 361.034 999.309 361.742 998.318 361.742H998.278ZM997.003 381.334V364.35H999.714V381.334H997.003Z" fill="#009FFF"></path><path d="M1011.51 387.44C1010.74 388.067 1009.69 388.31 1008.88 388.31C1007.12 388.31 1006.01 387.258 1006.01 385.681C1006.01 384.003 1007.44 382.345 1008.64 381.577V381.536H1008.53C1004.57 381.476 1002.51 378.16 1002.51 373.004C1002.51 367.504 1004.83 364.067 1008.19 364.067C1011.55 364.067 1013.07 367.706 1013.07 371.548C1013.07 372.215 1013.03 372.741 1012.98 373.085H1005.12C1005.16 378.301 1007.18 379.393 1009.12 379.393C1010.31 379.393 1011.27 379.11 1011.93 378.766L1012.4 380.728C1012.07 380.869 1011.69 381.051 1011.49 381.112C1009.81 381.961 1008.15 383.599 1008.15 385.034C1008.15 386.025 1008.78 386.409 1009.44 386.409C1010.01 386.409 1010.56 386.227 1011.06 385.944L1011.53 387.42L1011.51 387.44ZM1010.46 371.103C1010.5 367.706 1009.22 366.19 1007.93 366.19C1006.15 366.19 1005.26 368.778 1005.16 371.103H1010.46Z" fill="#009FFF"></path><path d="M1024.23 380.93C1023.65 381.274 1022.61 381.557 1021.42 381.557C1017.7 381.557 1015.21 378.584 1015.21 372.963C1015.21 368.09 1017.66 364.127 1021.91 364.127C1022.82 364.127 1023.81 364.37 1024.29 364.694L1023.77 366.877C1023.42 366.695 1022.72 366.412 1021.85 366.412C1019.11 366.412 1017.92 369.647 1017.92 372.963C1017.92 376.926 1019.44 379.312 1021.93 379.312C1022.63 379.312 1023.26 379.171 1023.87 378.847L1024.25 380.91L1024.23 380.93Z" fill="#009FFF"></path><path d="M1025.83 379.696L1031.19 369.162C1031.66 368.313 1032.18 367.403 1032.57 366.675V366.594H1026.5V364.35H1035.58V366.129L1030.24 376.482C1029.78 377.331 1029.25 378.241 1028.87 379.009V379.09H1035.54V381.334H1025.81V379.676L1025.83 379.696Z" fill="#009FFF"></path><path d="M1038.01 368.737C1038.01 366.736 1037.91 365.725 1037.87 364.35H1040.21L1040.36 366.392H1040.42C1041.14 365.017 1042.52 364.067 1044.32 364.067C1046.67 364.067 1048.43 365.785 1048.43 369.93V381.334H1045.72V370.395C1045.72 368.353 1045.33 366.351 1043.37 366.351C1042.26 366.351 1041.16 367.302 1040.84 369.122C1040.74 369.506 1040.7 370.031 1040.7 370.638V381.334H1037.99V368.737H1038.01Z" fill="#009FFF"></path><path d="M1053.22 361.742C1052.35 361.742 1051.68 361.034 1051.68 359.982C1051.68 358.931 1052.39 358.223 1053.26 358.223C1054.25 358.223 1054.88 358.931 1054.88 359.982C1054.88 361.034 1054.25 361.742 1053.26 361.742H1053.22ZM1051.95 381.334V364.35H1054.66V381.334H1051.95Z" fill="#009FFF"></path><path d="M1060.87 372.256H1060.93C1061.25 371.588 1061.52 370.921 1061.84 370.355L1065.22 364.35H1068.13L1063.64 371.507L1068.56 381.334H1065.54L1061.86 373.327L1060.87 374.904V381.314H1058.16V357.03H1060.87V372.215V372.256Z" fill="#009FFF"></path><path d="M1079.52 377.492C1079.52 378.786 1079.52 380.263 1079.7 381.354H1077.28L1077.09 379.575H1076.99C1076.26 380.869 1075.07 381.637 1073.61 381.637C1071.33 381.637 1069.57 379.737 1069.57 376.805C1069.57 372.518 1072.97 370.658 1076.79 370.638V370.112C1076.79 367.828 1076.22 366.25 1074.08 366.25C1073.03 366.25 1072.08 366.574 1071.27 367.12L1070.68 365.219C1071.41 364.694 1072.97 364.087 1074.65 364.087C1078.04 364.087 1079.48 366.331 1079.48 370.112V377.472L1079.52 377.492ZM1076.87 372.539C1075.47 372.539 1072.2 372.822 1072.2 376.502C1072.2 378.746 1073.33 379.514 1074.26 379.514C1075.45 379.514 1076.45 378.645 1076.75 376.947C1076.81 376.623 1076.85 376.279 1076.85 375.956V372.518L1076.87 372.539Z" fill="#009FFF"></path><path d="M917.216 507.565V504.127L920.089 500.286C923.993 495.069 927.797 490.034 927.797 484.898C927.797 481.926 926.34 479.985 923.609 479.985C921.505 479.985 919.988 480.996 918.997 481.643L917.985 477.68C919.26 476.75 921.707 475.638 924.54 475.638C930.629 475.638 932.874 479.924 932.874 484.535C932.874 490.459 929.132 495.655 925.41 500.366L923.447 502.894V502.995H933.38V507.565H917.237H917.216Z" fill="#009FFF"></path><path d="M953.974 491.692C953.974 503.096 950.11 507.969 945.275 507.969C939.348 507.969 936.779 501.013 936.779 491.915C936.779 482.149 939.773 475.638 945.619 475.638C951.87 475.638 953.974 483.038 953.974 491.692ZM941.917 491.793C941.856 499.275 942.929 503.521 945.498 503.521C947.885 503.521 948.815 499.173 948.815 491.793C948.815 484.413 947.925 480.066 945.478 480.066C943.03 480.066 941.897 484.353 941.917 491.793Z" fill="#009FFF"></path><path d="M956.624 507.565V504.127L959.497 500.286C963.401 495.069 967.205 490.034 967.205 484.898C967.205 481.926 965.748 479.985 963.017 479.985C960.913 479.985 959.396 480.996 958.404 481.643L957.393 477.68C958.667 476.75 961.115 475.638 963.947 475.638C970.037 475.638 972.282 479.924 972.282 484.535C972.282 490.459 968.54 495.655 964.817 500.366L962.855 502.894V502.995H972.788V507.565H956.645H956.624Z" fill="#009FFF"></path><path d="M986.241 507.565V499.497H975.661V495.959L985.857 476.002H990.813V495.312H994.05V499.477H990.813V507.544H986.221L986.241 507.565ZM986.241 495.332V487.77C986.241 485.869 986.382 483.968 986.544 482.108H986.382C985.513 484.211 984.865 485.647 983.995 487.487L980.212 495.231V495.332H986.241Z" fill="#009FFF"></path></g><path d="M10.5618 283.366V239.279C37.1558 248.702 70.8191 253.077 99.0963 252.741C105.829 252.741 112.562 251.395 118.621 248.029C127.037 243.654 130.74 234.904 128.72 224.808C126.7 215.049 120.978 209.664 110.879 209.327C98.4231 208.654 85.631 209.327 73.1755 208.991C63.4132 208.991 53.9875 208.318 44.2251 206.299C22.0073 201.587 7.86874 188.462 2.81924 166.25C-0.547097 152.116 -0.883731 137.981 2.81924 124.183C7.53211 106.346 18.9775 94.231 35.4725 86.4906C51.6309 79.0867 68.7994 76.7309 86.3043 76.0578C114.582 74.7117 146.562 80.0963 173.492 88.5098V133.269C161.373 129.231 149.928 125.193 137.809 123.173C117.611 119.808 97.4133 117.452 76.8786 120.481C71.8291 121.154 66.7794 122.5 62.4032 124.856C53.6507 129.231 49.9479 136.298 51.6311 146.058C53.3143 155.481 59.037 161.202 68.7993 162.548C72.8389 163.222 76.8784 163.222 80.9181 163.222C96.0666 163.222 111.552 162.548 126.7 164.231C134.443 164.904 142.186 166.587 149.255 169.279C167.096 176.347 177.869 189.472 182.245 207.981C185.275 222.452 185.611 236.924 181.235 251.058C176.186 268.222 164.403 279.327 148.582 286.395C134.443 292.789 119.294 294.808 103.809 295.818C73.5123 297.164 43.8885 294.135 14.6014 285.049C13.5915 285.049 12.5815 284.375 10.8983 283.366H10.5618Z" fill="#0E4194"></path><path d="M616.839 236.25C604.047 247.693 591.928 258.799 579.136 270.241C570.383 262.837 564.324 254.087 559.948 244.327C548.839 220.097 547.492 194.52 549.512 168.606C550.185 158.847 552.205 149.423 554.898 140.337C564.324 109.712 584.522 90.529 615.156 82.4521C642.087 75.3848 669.354 75.3848 696.621 82.4521C728.938 90.8656 749.809 111.731 758.225 144.039C765.294 171.298 765.294 198.558 758.898 226.154C750.146 262.5 726.581 283.703 690.225 291.443C676.76 294.135 663.294 295.481 648.482 294.472C651.512 280.337 654.205 266.876 657.235 253.414C660.938 252.741 663.967 252.404 666.997 251.731C686.185 249.039 697.967 237.933 703.69 219.76C710.423 198.222 710.76 176.347 705.037 154.808C697.294 126.202 675.076 116.443 648.146 119.808C624.245 122.837 610.779 136.298 606.066 161.539C602.7 178.702 603.037 195.529 606.74 212.693C608.76 220.77 611.789 228.51 617.176 236.25H616.839Z" fill="#0E4194"></path><path d="M453.235 0H507.096V293.462H453.235V0Z" fill="#0E4194"></path><path d="M237.116 427.741H207.493V420.001C207.493 399.472 207.493 378.606 207.493 358.077C207.493 355.385 207.493 352.693 207.493 350.001C206.483 342.26 202.78 337.885 195.037 336.202C181.572 333.174 171.136 338.895 160.7 346.972V427.741H131.75V311.972C131.75 311.972 131.75 311.299 132.423 311.299H152.621C152.621 311.299 152.958 311.299 153.294 311.635C153.631 313.654 155.314 322.741 157.671 326.779C159.354 326.443 162.047 324.424 164.067 323.078C178.205 311.972 194.027 308.943 211.195 312.981C224.661 316.347 233.077 325.097 236.443 338.558C237.453 342.597 238.126 346.635 238.126 350.337C238.126 375.914 238.126 401.491 238.126 427.741H237.116Z" fill="#388B35"></path><path d="M412.166 311.635C413.512 316.347 414.859 320.385 416.205 325.433C425.631 317.693 435.393 311.299 448.186 311.299V334.857C437.413 335.866 427.651 339.568 419.908 348.655C412.166 357.741 419.572 348.318 419.572 348.655V427.405H389.948V311.635C397.354 310.626 404.76 310.962 412.502 311.635H412.166Z" fill="#388B35"></path><path d="M597.651 311.635H626.264V427.741H597.651V311.635Z" fill="#388B35"></path><path d="M409.809 204.952H267.413C265.057 218.75 272.463 233.222 285.592 240.625C294.344 245.674 304.106 248.029 313.869 249.375C337.433 252.068 360.661 250.049 383.888 246.683C388.601 246.01 393.314 245.337 398.7 244.327V287.068C388.938 289.76 379.176 290.77 369.413 291.779C340.463 294.135 311.512 295.818 282.898 288.077C242.839 277.308 218.938 250.049 213.552 208.654C210.522 186.443 210.859 164.231 216.582 142.356C225.334 109.712 245.869 88.8463 279.195 81.4424C302.76 76.0578 325.988 76.0578 349.552 81.779C383.215 90.1925 404.76 114.76 410.146 150.769C412.839 168.27 412.839 186.106 410.146 204.616L409.809 204.952ZM357.968 166.587C359.988 141.346 348.205 125.192 323.968 121.491C295.017 117.116 268.76 128.221 267.077 166.587H358.304H357.968Z" fill="#0E4194"></path><path d="M569.374 316.01C569.374 316.01 569.374 318.029 569.374 318.702C569.374 353.366 569.374 388.03 569.374 422.693C569.374 446.251 556.581 461.395 533.69 467.116C512.482 472.501 491.275 470.818 470.067 464.76V441.539C481.849 444.905 493.631 446.587 505.75 446.587C512.146 446.587 518.542 446.587 524.938 444.232C535.037 440.53 539.75 433.126 539.077 421.684C526.285 425.722 504.403 426.395 492.284 423.366C479.156 419.664 469.393 411.587 464.68 398.462C457.948 380.289 457.611 361.443 463.671 343.27C470.403 323.414 486.225 315.001 506.087 312.308C524.265 309.953 542.106 312.308 559.948 314.664C562.978 315.001 566.344 315.674 569.71 316.01H569.374ZM539.75 395.097V337.549C529.988 335.193 520.562 333.847 511.136 335.866C500.364 338.222 493.631 344.616 490.938 355.049C488.245 364.472 488.582 374.232 490.938 383.655C493.631 393.414 500.027 399.472 510.126 400.482C520.562 401.491 530.324 400.145 539.75 394.76V395.097Z" fill="#388B35"></path><path d="M722.541 358.414C725.571 342.933 720.185 335.866 705.037 335.193C691.908 334.52 671.71 335.193 658.581 339.904C658.581 339.904 658.581 325.097 658.581 317.356C681.472 312.308 704.027 308.606 726.918 315C744.086 319.712 752.839 331.154 753.175 348.318C753.512 374.568 753.175 401.828 753.175 428.414C753.175 428.414 753.175 429.087 752.502 429.087H736.68C736.68 429.087 736.68 429.087 736.344 429.087C732.977 426.058 729.611 422.356 725.908 418.991L725.235 419.327C717.492 423.366 709.413 426.731 700.66 428.077C690.225 429.76 680.126 428.751 670.363 425.722C656.225 421.347 649.155 410.577 648.482 394.424C647.809 379.279 654.542 368.174 668.344 362.789C684.165 356.058 700.997 357.404 717.492 358.75H722.205L722.541 358.414ZM723.552 379.279C711.769 377.597 700.661 375.578 689.215 378.606C681.809 380.626 678.779 385 678.779 392.741C678.779 400.481 682.482 404.52 689.888 406.202C702.68 408.895 713.453 404.856 723.215 397.789V379.279H723.552Z" fill="#388B35"></path><path d="M107.512 379.953H30.4231C29.4132 389.712 33.7896 396.107 41.5322 400.145C46.9183 402.837 52.6411 404.183 58.3639 404.52C72.5025 405.193 86.6409 404.184 101.116 401.491V424.712C81.2548 428.414 61.7302 430.097 42.542 426.059C17.9678 421.011 5.17577 406.876 1.13616 382.309C-0.883637 369.52 -0.210452 357.068 3.15588 344.953C7.86875 328.799 18.3045 318.366 34.7995 313.991C46.5817 310.962 58.7003 310.626 70.8191 312.982C91.0171 316.683 102.463 328.799 106.839 349.328C108.859 359.424 108.522 369.52 107.512 380.289V379.953ZM54.3242 334.857C39.1757 334.857 30.0866 344.616 31.4332 359.087H79.235C79.9082 342.26 71.4925 334.52 54.3242 334.857Z" fill="#388B35"></path><path d="M366.047 379.953H289.294C289.294 388.703 292.324 395.097 299.393 399.135C305.116 402.501 311.176 403.847 317.908 404.184C332.047 404.857 346.522 404.184 360.997 401.491V424.712C337.433 428.751 314.205 431.107 291.651 423.03C275.829 417.308 266.067 405.53 262.027 389.376C258.661 375.578 258.661 361.78 262.027 347.981C266.067 329.808 277.176 318.029 295.354 313.654C308.146 310.626 320.938 310.626 333.73 313.654C350.562 317.693 361.334 328.462 365.374 345.289C368.067 356.732 368.74 367.837 366.384 379.953H366.047ZM338.106 358.751C338.443 342.933 331.037 334.856 315.889 334.52C299.057 334.183 289.968 342.597 289.631 358.751H338.106Z" fill="#388B35"></path><path d="M599.67 296.827C596.977 260.818 616.165 240.962 646.462 240.962C647.809 268.558 631.651 300.866 602.027 298.51C602.027 298.51 611.116 275.625 629.631 257.116C629.631 257.116 609.096 272.597 599.67 296.827Z" fill="#388B35"></path><defs><clipPath id="clip0_88_1897"><rect width="357.341" height="279.818" fill="white" transform="translate(776.659 299.182)"></rect></clipPath></defs></svg>